<svg width="141" height="129" viewBox="0 0 141 129" fill="none" xmlns="http://www.w3.org/2000/svg">
<rect width="141" height="129" fill="#0F2B05"/>
<path fill-rule="evenodd" clip-rule="evenodd" d="M29.0744 36.3865V31.2954L15.0006 36.5265H14.974V41.7508H15.0006L29.0744 46.9818V41.8841L21.8576 39.1253L29.0744 36.3799V36.3865Z" fill="#F7DD43"/>
<path fill-rule="evenodd" clip-rule="evenodd" d="M110.592 46.7286V41.6375L117.802 38.8987L110.592 36.16V31.0689L124.645 36.2999H124.679V41.5309H124.645L110.592 46.7353V46.7286ZM104.554 23.8654L96.2913 50.3937H101.196L109.459 23.8654H104.554Z" fill="#F7DD43"/>
<path fill-rule="evenodd" clip-rule="evenodd" d="M49.7519 30.5957C51.1512 32.1284 51.8843 34.1542 51.7977 36.2266V47.5282H46.8931V37.2661C46.9531 36.12 46.5866 35.0005 45.8669 34.1075C45.1872 33.3145 44.181 32.8747 43.1348 32.9214C40.0628 32.9214 38.5235 35.0538 38.5235 39.3119V47.5282H33.619V28.9765H38.5235V30.6491C40.0828 29.1364 42.1952 28.3301 44.3676 28.4234C46.3934 28.3367 48.3525 29.1297 49.7519 30.5957Z" fill="#F7DD43"/>
<path fill-rule="evenodd" clip-rule="evenodd" d="M58.0415 21V47.5283H62.946V21H58.0415Z" fill="#F7DD43"/>
<path fill-rule="evenodd" clip-rule="evenodd" d="M90.6804 47.5283H86.5889L82.5773 36.5998L78.5258 47.5283H74.4343L67.5573 28.9431H72.8017L76.6666 40.0582L80.6515 28.9431H84.4831L88.468 40.0915L92.333 28.9431H97.5773L90.6937 47.5283H90.6804Z" fill="#F7DD43"/>
<path d="M20.443 109.312C15.4176 109.312 10.138 108.36 6 106.067V65.6045C10.0732 63.3759 15.3528 62.3589 20.443 62.3589C25.5332 62.3589 30.6882 63.3111 34.7564 65.6045V81.1293H24.5112V70.565C23.3047 70.0565 21.839 69.8671 20.3782 69.8671C18.9174 69.8671 17.5763 70.0565 16.305 70.565V101.106C17.5115 101.615 18.9125 101.804 20.3782 101.804C21.8439 101.804 23.2399 101.615 24.5112 101.106V90.5469H34.7564V106.072C30.7481 108.3 25.4684 109.253 20.443 109.317V109.312Z" fill="#F7DD43"/>
<path d="M53.9706 109.312C48.5613 109.312 43.3464 108.166 39.2085 105.813V65.7939C43.2816 63.5056 48.5015 62.3589 53.9706 62.3589C59.4397 62.3589 64.5299 63.4407 68.603 65.7939V105.813C64.5947 108.166 59.315 109.248 53.9706 109.312ZM58.3628 70.6947C57.1563 70.1861 55.6906 69.9319 53.9107 69.9319C52.1309 69.9319 50.73 70.1861 49.5185 70.6947V100.917C50.725 101.49 52.1907 101.744 53.9107 101.744C55.6307 101.744 57.0915 101.49 58.3628 100.917V70.6947Z" fill="#F7DD43"/>
<path d="M86.481 92.1323H83.744V108.739H73.3741V62.9322H86.481C92.7179 62.9322 97.4242 64.2035 101.114 66.8109V88.2536C97.489 90.8012 92.7129 92.1323 86.481 92.1323ZM90.8085 70.8193C89.8562 70.1213 88.5799 69.8022 86.4162 69.8022H83.6144V85.2623H86.4162C88.5151 85.2623 89.7864 84.9432 90.8085 84.3101V70.8193Z" fill="#F7DD43"/>
<path d="M122.805 108.739V92.1323H115.173V108.739H104.868V65.7291C108.622 63.5006 113.901 62.3589 118.992 62.3589C124.082 62.3589 129.297 63.5056 133.051 65.7291V108.739H122.805ZM122.805 70.3108C121.724 69.8022 120.387 69.548 118.987 69.548C117.586 69.548 116.25 69.8022 115.168 70.3108V84.8784H122.8V70.3108H122.805Z" fill="#F7DD43"/>
</svg>
